<mxfile host="app.diagrams.net" modified="2023-12-18T15:19:48.607Z" agent="Mozilla/5.0 (Windows NT 10.0; Win64; x64) AppleWebKit/537.36 (KHTML, like Gecko) Chrome/120.0.0.0 Safari/537.36" etag="iSmZzoaqrnaB8pEkNvT0" version="22.1.11" type="device">
  <diagram name="Sayfa -1" id="O1Wi90XZaKLXA5at2j_L">
    <mxGraphModel dx="1674" dy="772" grid="1" gridSize="10" guides="1" tooltips="1" connect="1" arrows="1" fold="1" page="1" pageScale="1" pageWidth="827" pageHeight="1169" math="0" shadow="0">
      <root>
        <mxCell id="0" />
        <mxCell id="1" parent="0" />
        <mxCell id="tfZW8QYN_rJ0GYAhI4rr-1" value="&lt;b&gt;&lt;font style=&quot;font-size: 24px;&quot;&gt;Client&lt;/font&gt;&lt;/b&gt;" style="text;html=1;align=center;verticalAlign=middle;resizable=0;points=[];autosize=1;strokeColor=none;fillColor=none;" parent="1" vertex="1">
          <mxGeometry x="50" y="70" width="90" height="40" as="geometry" />
        </mxCell>
        <mxCell id="tfZW8QYN_rJ0GYAhI4rr-25" style="edgeStyle=orthogonalEdgeStyle;rounded=0;orthogonalLoop=1;jettySize=auto;html=1;entryX=0;entryY=0.5;entryDx=0;entryDy=0;" parent="1" source="tfZW8QYN_rJ0GYAhI4rr-5" target="tfZW8QYN_rJ0GYAhI4rr-7" edge="1">
          <mxGeometry relative="1" as="geometry" />
        </mxCell>
        <mxCell id="tfZW8QYN_rJ0GYAhI4rr-5" value="Actor" style="shape=umlActor;verticalLabelPosition=bottom;verticalAlign=top;html=1;outlineConnect=0;" parent="1" vertex="1">
          <mxGeometry x="80" y="125" width="30" height="60" as="geometry" />
        </mxCell>
        <mxCell id="o04ofw2vbKh8fe8RlwHw-1" style="edgeStyle=orthogonalEdgeStyle;rounded=0;orthogonalLoop=1;jettySize=auto;html=1;entryX=0;entryY=0.5;entryDx=0;entryDy=0;" edge="1" parent="1" source="tfZW8QYN_rJ0GYAhI4rr-7" target="tfZW8QYN_rJ0GYAhI4rr-8">
          <mxGeometry relative="1" as="geometry" />
        </mxCell>
        <mxCell id="o04ofw2vbKh8fe8RlwHw-2" style="edgeStyle=orthogonalEdgeStyle;rounded=0;orthogonalLoop=1;jettySize=auto;html=1;entryX=0;entryY=0.5;entryDx=0;entryDy=0;" edge="1" parent="1" source="tfZW8QYN_rJ0GYAhI4rr-7" target="tfZW8QYN_rJ0GYAhI4rr-9">
          <mxGeometry relative="1" as="geometry" />
        </mxCell>
        <mxCell id="o04ofw2vbKh8fe8RlwHw-3" style="edgeStyle=orthogonalEdgeStyle;rounded=0;orthogonalLoop=1;jettySize=auto;html=1;entryX=0;entryY=0.5;entryDx=0;entryDy=0;" edge="1" parent="1" source="tfZW8QYN_rJ0GYAhI4rr-7" target="tfZW8QYN_rJ0GYAhI4rr-10">
          <mxGeometry relative="1" as="geometry" />
        </mxCell>
        <mxCell id="tfZW8QYN_rJ0GYAhI4rr-7" value="API GATEWAY" style="rounded=0;whiteSpace=wrap;html=1;" parent="1" vertex="1">
          <mxGeometry x="200" y="135" width="100" height="40" as="geometry" />
        </mxCell>
        <mxCell id="tfZW8QYN_rJ0GYAhI4rr-8" value="Auth Service" style="rounded=0;whiteSpace=wrap;html=1;" parent="1" vertex="1">
          <mxGeometry x="450" y="80" width="140" height="30" as="geometry" />
        </mxCell>
        <mxCell id="tfZW8QYN_rJ0GYAhI4rr-9" value="X Service" style="rounded=0;whiteSpace=wrap;html=1;" parent="1" vertex="1">
          <mxGeometry x="450" y="140" width="140" height="30" as="geometry" />
        </mxCell>
        <mxCell id="tfZW8QYN_rJ0GYAhI4rr-10" value="Y Service" style="rounded=0;whiteSpace=wrap;html=1;" parent="1" vertex="1">
          <mxGeometry x="450" y="200" width="140" height="30" as="geometry" />
        </mxCell>
        <mxCell id="tfZW8QYN_rJ0GYAhI4rr-11" value="Shared&lt;br&gt;DB" style="shape=cylinder3;whiteSpace=wrap;html=1;boundedLbl=1;backgroundOutline=1;size=15;" parent="1" vertex="1">
          <mxGeometry x="670" y="120" width="60" height="80" as="geometry" />
        </mxCell>
        <mxCell id="tfZW8QYN_rJ0GYAhI4rr-20" value="" style="endArrow=classic;startArrow=classic;html=1;rounded=0;entryX=0;entryY=0;entryDx=0;entryDy=27.5;exitX=1;exitY=0.5;exitDx=0;exitDy=0;entryPerimeter=0;" parent="1" source="tfZW8QYN_rJ0GYAhI4rr-8" target="tfZW8QYN_rJ0GYAhI4rr-11" edge="1">
          <mxGeometry width="50" height="50" relative="1" as="geometry">
            <mxPoint x="610" y="160" as="sourcePoint" />
            <mxPoint x="650" y="85" as="targetPoint" />
          </mxGeometry>
        </mxCell>
        <mxCell id="tfZW8QYN_rJ0GYAhI4rr-21" value="" style="endArrow=classic;startArrow=classic;html=1;rounded=0;entryX=0;entryY=0.5;entryDx=0;entryDy=0;exitX=1;exitY=0.5;exitDx=0;exitDy=0;entryPerimeter=0;" parent="1" source="tfZW8QYN_rJ0GYAhI4rr-9" target="tfZW8QYN_rJ0GYAhI4rr-11" edge="1">
          <mxGeometry width="50" height="50" relative="1" as="geometry">
            <mxPoint x="600" y="160" as="sourcePoint" />
            <mxPoint x="680" y="235" as="targetPoint" />
          </mxGeometry>
        </mxCell>
        <mxCell id="tfZW8QYN_rJ0GYAhI4rr-22" value="" style="endArrow=classic;startArrow=classic;html=1;rounded=0;entryX=0.014;entryY=0.721;entryDx=0;entryDy=0;exitX=1;exitY=0.5;exitDx=0;exitDy=0;entryPerimeter=0;" parent="1" source="tfZW8QYN_rJ0GYAhI4rr-10" target="tfZW8QYN_rJ0GYAhI4rr-11" edge="1">
          <mxGeometry width="50" height="50" relative="1" as="geometry">
            <mxPoint x="600" y="220" as="sourcePoint" />
            <mxPoint x="680" y="225" as="targetPoint" />
          </mxGeometry>
        </mxCell>
        <mxCell id="tfZW8QYN_rJ0GYAhI4rr-26" value="api.x.com/v1" style="text;html=1;strokeColor=none;fillColor=none;align=center;verticalAlign=middle;whiteSpace=wrap;rounded=0;" parent="1" vertex="1">
          <mxGeometry x="200" y="100" width="100" height="25" as="geometry" />
        </mxCell>
        <mxCell id="tfZW8QYN_rJ0GYAhI4rr-28" value="&lt;b&gt;&lt;font style=&quot;font-size: 14px;&quot;&gt;Authentication Scenario: Accesing to X Service with GET&lt;/font&gt;&lt;/b&gt;" style="text;html=1;strokeColor=none;fillColor=none;align=center;verticalAlign=middle;whiteSpace=wrap;rounded=0;" parent="1" vertex="1">
          <mxGeometry x="30" y="300" width="290" height="30" as="geometry" />
        </mxCell>
        <mxCell id="tfZW8QYN_rJ0GYAhI4rr-31" value="&lt;b&gt;&lt;font style=&quot;font-size: 14px;&quot;&gt;General Flow&lt;/font&gt;&lt;/b&gt;" style="text;html=1;strokeColor=none;fillColor=none;align=center;verticalAlign=middle;whiteSpace=wrap;rounded=0;" parent="1" vertex="1">
          <mxGeometry x="30" y="30" width="140" height="30" as="geometry" />
        </mxCell>
        <mxCell id="o04ofw2vbKh8fe8RlwHw-4" style="edgeStyle=orthogonalEdgeStyle;rounded=0;orthogonalLoop=1;jettySize=auto;html=1;" edge="1" parent="1" source="tfZW8QYN_rJ0GYAhI4rr-32" target="tfZW8QYN_rJ0GYAhI4rr-34">
          <mxGeometry relative="1" as="geometry" />
        </mxCell>
        <mxCell id="tfZW8QYN_rJ0GYAhI4rr-32" value="Actor" style="shape=umlActor;verticalLabelPosition=bottom;verticalAlign=top;html=1;outlineConnect=0;" parent="1" vertex="1">
          <mxGeometry x="80" y="350" width="30" height="60" as="geometry" />
        </mxCell>
        <mxCell id="o04ofw2vbKh8fe8RlwHw-5" style="edgeStyle=orthogonalEdgeStyle;rounded=0;orthogonalLoop=1;jettySize=auto;html=1;entryX=0.5;entryY=0;entryDx=0;entryDy=0;" edge="1" parent="1" source="tfZW8QYN_rJ0GYAhI4rr-34" target="tfZW8QYN_rJ0GYAhI4rr-36">
          <mxGeometry relative="1" as="geometry" />
        </mxCell>
        <mxCell id="o04ofw2vbKh8fe8RlwHw-9" value="1- Check Token" style="edgeLabel;html=1;align=center;verticalAlign=middle;resizable=0;points=[];" vertex="1" connectable="0" parent="o04ofw2vbKh8fe8RlwHw-5">
          <mxGeometry x="-0.0857" y="-3" relative="1" as="geometry">
            <mxPoint x="-47" y="8" as="offset" />
          </mxGeometry>
        </mxCell>
        <mxCell id="o04ofw2vbKh8fe8RlwHw-12" value="gRPC" style="edgeLabel;html=1;align=center;verticalAlign=middle;resizable=0;points=[];" vertex="1" connectable="0" parent="o04ofw2vbKh8fe8RlwHw-5">
          <mxGeometry x="-0.2571" y="-1" relative="1" as="geometry">
            <mxPoint x="31" y="14" as="offset" />
          </mxGeometry>
        </mxCell>
        <mxCell id="o04ofw2vbKh8fe8RlwHw-10" style="edgeStyle=orthogonalEdgeStyle;rounded=0;orthogonalLoop=1;jettySize=auto;html=1;entryX=0;entryY=0.5;entryDx=0;entryDy=0;" edge="1" parent="1" source="tfZW8QYN_rJ0GYAhI4rr-34" target="o04ofw2vbKh8fe8RlwHw-7">
          <mxGeometry relative="1" as="geometry" />
        </mxCell>
        <mxCell id="o04ofw2vbKh8fe8RlwHw-11" value="grpc" style="edgeLabel;html=1;align=center;verticalAlign=middle;resizable=0;points=[];" vertex="1" connectable="0" parent="o04ofw2vbKh8fe8RlwHw-10">
          <mxGeometry x="0.15" y="1" relative="1" as="geometry">
            <mxPoint x="-12" y="1" as="offset" />
          </mxGeometry>
        </mxCell>
        <mxCell id="o04ofw2vbKh8fe8RlwHw-14" value="2 - Service" style="edgeLabel;html=1;align=center;verticalAlign=middle;resizable=0;points=[];" vertex="1" connectable="0" parent="o04ofw2vbKh8fe8RlwHw-10">
          <mxGeometry x="0.325" y="-3" relative="1" as="geometry">
            <mxPoint x="-26" y="-23" as="offset" />
          </mxGeometry>
        </mxCell>
        <mxCell id="tfZW8QYN_rJ0GYAhI4rr-34" value="API GATEWAY" style="rounded=0;whiteSpace=wrap;html=1;" parent="1" vertex="1">
          <mxGeometry x="190" y="360" width="100" height="40" as="geometry" />
        </mxCell>
        <mxCell id="o04ofw2vbKh8fe8RlwHw-6" style="edgeStyle=orthogonalEdgeStyle;rounded=0;orthogonalLoop=1;jettySize=auto;html=1;" edge="1" parent="1" source="tfZW8QYN_rJ0GYAhI4rr-36" target="tfZW8QYN_rJ0GYAhI4rr-34">
          <mxGeometry relative="1" as="geometry">
            <Array as="points">
              <mxPoint x="250" y="460" />
              <mxPoint x="250" y="460" />
            </Array>
          </mxGeometry>
        </mxCell>
        <mxCell id="tfZW8QYN_rJ0GYAhI4rr-36" value="Auth Service" style="rounded=0;whiteSpace=wrap;html=1;" parent="1" vertex="1">
          <mxGeometry x="170" y="470" width="140" height="30" as="geometry" />
        </mxCell>
        <mxCell id="o04ofw2vbKh8fe8RlwHw-16" style="edgeStyle=orthogonalEdgeStyle;rounded=0;orthogonalLoop=1;jettySize=auto;html=1;" edge="1" parent="1" source="tfZW8QYN_rJ0GYAhI4rr-37">
          <mxGeometry relative="1" as="geometry">
            <mxPoint x="590" y="380" as="targetPoint" />
          </mxGeometry>
        </mxCell>
        <mxCell id="tfZW8QYN_rJ0GYAhI4rr-37" value="Shared&lt;br&gt;DB" style="shape=cylinder3;whiteSpace=wrap;html=1;boundedLbl=1;backgroundOutline=1;size=15;" parent="1" vertex="1">
          <mxGeometry x="740" y="350" width="60" height="80" as="geometry" />
        </mxCell>
        <mxCell id="o04ofw2vbKh8fe8RlwHw-17" style="edgeStyle=orthogonalEdgeStyle;rounded=0;orthogonalLoop=1;jettySize=auto;html=1;" edge="1" parent="1" source="o04ofw2vbKh8fe8RlwHw-7">
          <mxGeometry relative="1" as="geometry">
            <mxPoint x="290" y="390" as="targetPoint" />
            <Array as="points">
              <mxPoint x="290" y="390" />
            </Array>
          </mxGeometry>
        </mxCell>
        <mxCell id="o04ofw2vbKh8fe8RlwHw-18" value="3 - Response" style="edgeLabel;html=1;align=center;verticalAlign=middle;resizable=0;points=[];" vertex="1" connectable="0" parent="o04ofw2vbKh8fe8RlwHw-17">
          <mxGeometry x="-0.3125" y="1" relative="1" as="geometry">
            <mxPoint x="-25" y="9" as="offset" />
          </mxGeometry>
        </mxCell>
        <mxCell id="o04ofw2vbKh8fe8RlwHw-7" value="X Service" style="rounded=0;whiteSpace=wrap;html=1;" vertex="1" parent="1">
          <mxGeometry x="450" y="365" width="140" height="30" as="geometry" />
        </mxCell>
        <mxCell id="o04ofw2vbKh8fe8RlwHw-13" style="edgeStyle=orthogonalEdgeStyle;rounded=0;orthogonalLoop=1;jettySize=auto;html=1;entryX=0;entryY=0.5;entryDx=0;entryDy=0;entryPerimeter=0;" edge="1" parent="1" source="o04ofw2vbKh8fe8RlwHw-7" target="tfZW8QYN_rJ0GYAhI4rr-37">
          <mxGeometry relative="1" as="geometry" />
        </mxCell>
        <mxCell id="o04ofw2vbKh8fe8RlwHw-15" value="Prisma" style="edgeLabel;html=1;align=center;verticalAlign=middle;resizable=0;points=[];" vertex="1" connectable="0" parent="o04ofw2vbKh8fe8RlwHw-13">
          <mxGeometry x="0.25" y="4" relative="1" as="geometry">
            <mxPoint x="-50" y="-6" as="offset" />
          </mxGeometry>
        </mxCell>
        <mxCell id="o04ofw2vbKh8fe8RlwHw-27" style="edgeStyle=orthogonalEdgeStyle;rounded=0;orthogonalLoop=1;jettySize=auto;html=1;entryX=0;entryY=0.5;entryDx=0;entryDy=0;" edge="1" parent="1" source="o04ofw2vbKh8fe8RlwHw-21" target="o04ofw2vbKh8fe8RlwHw-28">
          <mxGeometry relative="1" as="geometry">
            <mxPoint x="280" y="605" as="targetPoint" />
          </mxGeometry>
        </mxCell>
        <mxCell id="o04ofw2vbKh8fe8RlwHw-21" value="AuthGuard" style="rounded=0;whiteSpace=wrap;html=1;" vertex="1" parent="1">
          <mxGeometry x="160" y="585" width="70" height="40" as="geometry" />
        </mxCell>
        <mxCell id="o04ofw2vbKh8fe8RlwHw-23" value="" style="endArrow=classic;html=1;rounded=0;entryX=0;entryY=0.5;entryDx=0;entryDy=0;" edge="1" parent="1" target="o04ofw2vbKh8fe8RlwHw-21">
          <mxGeometry width="50" height="50" relative="1" as="geometry">
            <mxPoint x="40" y="605" as="sourcePoint" />
            <mxPoint x="90" y="570" as="targetPoint" />
          </mxGeometry>
        </mxCell>
        <mxCell id="o04ofw2vbKh8fe8RlwHw-24" value="Request" style="edgeLabel;html=1;align=center;verticalAlign=middle;resizable=0;points=[];" vertex="1" connectable="0" parent="o04ofw2vbKh8fe8RlwHw-23">
          <mxGeometry x="-0.2167" y="-3" relative="1" as="geometry">
            <mxPoint y="-3" as="offset" />
          </mxGeometry>
        </mxCell>
        <mxCell id="o04ofw2vbKh8fe8RlwHw-32" style="edgeStyle=orthogonalEdgeStyle;rounded=0;orthogonalLoop=1;jettySize=auto;html=1;" edge="1" parent="1" source="o04ofw2vbKh8fe8RlwHw-28" target="o04ofw2vbKh8fe8RlwHw-31">
          <mxGeometry relative="1" as="geometry" />
        </mxCell>
        <mxCell id="o04ofw2vbKh8fe8RlwHw-33" value="Yes," style="edgeLabel;html=1;align=center;verticalAlign=middle;resizable=0;points=[];" vertex="1" connectable="0" parent="o04ofw2vbKh8fe8RlwHw-32">
          <mxGeometry x="-0.1828" y="2" relative="1" as="geometry">
            <mxPoint as="offset" />
          </mxGeometry>
        </mxCell>
        <mxCell id="o04ofw2vbKh8fe8RlwHw-34" style="edgeStyle=orthogonalEdgeStyle;rounded=0;orthogonalLoop=1;jettySize=auto;html=1;entryX=0.5;entryY=0;entryDx=0;entryDy=0;" edge="1" parent="1" source="o04ofw2vbKh8fe8RlwHw-28" target="o04ofw2vbKh8fe8RlwHw-36">
          <mxGeometry relative="1" as="geometry">
            <mxPoint x="364" y="720" as="targetPoint" />
            <Array as="points">
              <mxPoint x="503" y="650" />
            </Array>
          </mxGeometry>
        </mxCell>
        <mxCell id="o04ofw2vbKh8fe8RlwHw-35" value="No&lt;br&gt;" style="edgeLabel;html=1;align=center;verticalAlign=middle;resizable=0;points=[];" vertex="1" connectable="0" parent="o04ofw2vbKh8fe8RlwHw-34">
          <mxGeometry x="-0.2685" y="4" relative="1" as="geometry">
            <mxPoint x="-4" as="offset" />
          </mxGeometry>
        </mxCell>
        <mxCell id="o04ofw2vbKh8fe8RlwHw-28" value="Check if&lt;br&gt;Route Public&lt;br&gt;" style="rhombus;whiteSpace=wrap;html=1;" vertex="1" parent="1">
          <mxGeometry x="314" y="557.5" width="100" height="95" as="geometry" />
        </mxCell>
        <mxCell id="o04ofw2vbKh8fe8RlwHw-31" value="Proceed to X Service" style="text;html=1;align=center;verticalAlign=middle;resizable=0;points=[];autosize=1;strokeColor=none;fillColor=none;" vertex="1" parent="1">
          <mxGeometry x="600" y="590" width="140" height="30" as="geometry" />
        </mxCell>
        <mxCell id="o04ofw2vbKh8fe8RlwHw-63" style="edgeStyle=orthogonalEdgeStyle;rounded=0;orthogonalLoop=1;jettySize=auto;html=1;entryX=1;entryY=0.5;entryDx=0;entryDy=0;" edge="1" parent="1" source="o04ofw2vbKh8fe8RlwHw-36" target="o04ofw2vbKh8fe8RlwHw-39">
          <mxGeometry relative="1" as="geometry" />
        </mxCell>
        <mxCell id="o04ofw2vbKh8fe8RlwHw-64" value="No" style="edgeLabel;html=1;align=center;verticalAlign=middle;resizable=0;points=[];" vertex="1" connectable="0" parent="o04ofw2vbKh8fe8RlwHw-63">
          <mxGeometry x="0.2545" y="2" relative="1" as="geometry">
            <mxPoint x="9" y="-2" as="offset" />
          </mxGeometry>
        </mxCell>
        <mxCell id="o04ofw2vbKh8fe8RlwHw-36" value="Check if token valid" style="rhombus;whiteSpace=wrap;html=1;" vertex="1" parent="1">
          <mxGeometry x="450" y="710" width="106" height="100" as="geometry" />
        </mxCell>
        <mxCell id="o04ofw2vbKh8fe8RlwHw-53" style="edgeStyle=orthogonalEdgeStyle;rounded=0;orthogonalLoop=1;jettySize=auto;html=1;entryX=0.5;entryY=0;entryDx=0;entryDy=0;" edge="1" parent="1" source="o04ofw2vbKh8fe8RlwHw-39" target="o04ofw2vbKh8fe8RlwHw-48">
          <mxGeometry relative="1" as="geometry" />
        </mxCell>
        <mxCell id="o04ofw2vbKh8fe8RlwHw-54" value="Yes" style="edgeLabel;html=1;align=center;verticalAlign=middle;resizable=0;points=[];" vertex="1" connectable="0" parent="o04ofw2vbKh8fe8RlwHw-53">
          <mxGeometry x="-0.1111" y="-1" relative="1" as="geometry">
            <mxPoint as="offset" />
          </mxGeometry>
        </mxCell>
        <mxCell id="o04ofw2vbKh8fe8RlwHw-39" value="Check if &lt;br&gt;token signature valid" style="rhombus;whiteSpace=wrap;html=1;" vertex="1" parent="1">
          <mxGeometry x="240" y="715" width="100" height="90" as="geometry" />
        </mxCell>
        <mxCell id="o04ofw2vbKh8fe8RlwHw-41" style="edgeStyle=orthogonalEdgeStyle;rounded=0;orthogonalLoop=1;jettySize=auto;html=1;entryX=0.6;entryY=0.933;entryDx=0;entryDy=0;entryPerimeter=0;" edge="1" parent="1" source="o04ofw2vbKh8fe8RlwHw-36" target="o04ofw2vbKh8fe8RlwHw-31">
          <mxGeometry relative="1" as="geometry" />
        </mxCell>
        <mxCell id="o04ofw2vbKh8fe8RlwHw-44" value="Yes" style="edgeLabel;html=1;align=center;verticalAlign=middle;resizable=0;points=[];" vertex="1" connectable="0" parent="o04ofw2vbKh8fe8RlwHw-41">
          <mxGeometry x="-0.6193" y="1" relative="1" as="geometry">
            <mxPoint as="offset" />
          </mxGeometry>
        </mxCell>
        <mxCell id="o04ofw2vbKh8fe8RlwHw-58" style="edgeStyle=orthogonalEdgeStyle;rounded=0;orthogonalLoop=1;jettySize=auto;html=1;entryX=0;entryY=0.5;entryDx=0;entryDy=0;" edge="1" parent="1" source="o04ofw2vbKh8fe8RlwHw-48" target="o04ofw2vbKh8fe8RlwHw-57">
          <mxGeometry relative="1" as="geometry" />
        </mxCell>
        <mxCell id="o04ofw2vbKh8fe8RlwHw-60" value="Yes" style="edgeLabel;html=1;align=center;verticalAlign=middle;resizable=0;points=[];" vertex="1" connectable="0" parent="o04ofw2vbKh8fe8RlwHw-58">
          <mxGeometry x="-0.2" y="2" relative="1" as="geometry">
            <mxPoint as="offset" />
          </mxGeometry>
        </mxCell>
        <mxCell id="o04ofw2vbKh8fe8RlwHw-48" value="Check if &lt;br&gt;expiry date is in last 24 hours" style="rhombus;whiteSpace=wrap;html=1;" vertex="1" parent="1">
          <mxGeometry x="155" y="920" width="130" height="130" as="geometry" />
        </mxCell>
        <mxCell id="o04ofw2vbKh8fe8RlwHw-49" value="STOP: Unauthorized" style="text;html=1;align=center;verticalAlign=middle;resizable=0;points=[];autosize=1;strokeColor=none;fillColor=none;" vertex="1" parent="1">
          <mxGeometry y="745" width="130" height="30" as="geometry" />
        </mxCell>
        <mxCell id="o04ofw2vbKh8fe8RlwHw-55" style="edgeStyle=orthogonalEdgeStyle;rounded=0;orthogonalLoop=1;jettySize=auto;html=1;entryX=0.462;entryY=1.033;entryDx=0;entryDy=0;entryPerimeter=0;" edge="1" parent="1" source="o04ofw2vbKh8fe8RlwHw-48" target="o04ofw2vbKh8fe8RlwHw-49">
          <mxGeometry relative="1" as="geometry" />
        </mxCell>
        <mxCell id="o04ofw2vbKh8fe8RlwHw-56" value="No" style="edgeLabel;html=1;align=center;verticalAlign=middle;resizable=0;points=[];" vertex="1" connectable="0" parent="o04ofw2vbKh8fe8RlwHw-55">
          <mxGeometry x="0.1116" relative="1" as="geometry">
            <mxPoint as="offset" />
          </mxGeometry>
        </mxCell>
        <mxCell id="o04ofw2vbKh8fe8RlwHw-57" value="Refresh Token" style="rounded=0;whiteSpace=wrap;html=1;" vertex="1" parent="1">
          <mxGeometry x="440" y="970" width="90" height="30" as="geometry" />
        </mxCell>
        <mxCell id="o04ofw2vbKh8fe8RlwHw-59" style="edgeStyle=orthogonalEdgeStyle;rounded=0;orthogonalLoop=1;jettySize=auto;html=1;entryX=0.714;entryY=1;entryDx=0;entryDy=0;entryPerimeter=0;" edge="1" parent="1" source="o04ofw2vbKh8fe8RlwHw-57" target="o04ofw2vbKh8fe8RlwHw-31">
          <mxGeometry relative="1" as="geometry" />
        </mxCell>
        <mxCell id="o04ofw2vbKh8fe8RlwHw-61" value="Set new cookie" style="edgeLabel;html=1;align=center;verticalAlign=middle;resizable=0;points=[];" vertex="1" connectable="0" parent="o04ofw2vbKh8fe8RlwHw-59">
          <mxGeometry x="-0.582" y="-2" relative="1" as="geometry">
            <mxPoint x="-9" y="-2" as="offset" />
          </mxGeometry>
        </mxCell>
        <mxCell id="o04ofw2vbKh8fe8RlwHw-62" value="&lt;font style=&quot;font-size: 18px;&quot;&gt;&lt;b&gt;Authentication Flow&lt;/b&gt;&lt;/font&gt;" style="text;html=1;align=center;verticalAlign=middle;resizable=0;points=[];autosize=1;strokeColor=none;fillColor=none;" vertex="1" parent="1">
          <mxGeometry x="20" y="530" width="200" height="40" as="geometry" />
        </mxCell>
        <mxCell id="o04ofw2vbKh8fe8RlwHw-70" style="edgeStyle=orthogonalEdgeStyle;rounded=0;orthogonalLoop=1;jettySize=auto;html=1;entryX=0.992;entryY=0.533;entryDx=0;entryDy=0;entryPerimeter=0;" edge="1" parent="1" source="o04ofw2vbKh8fe8RlwHw-39" target="o04ofw2vbKh8fe8RlwHw-49">
          <mxGeometry relative="1" as="geometry" />
        </mxCell>
        <mxCell id="o04ofw2vbKh8fe8RlwHw-73" value="No" style="edgeLabel;html=1;align=center;verticalAlign=middle;resizable=0;points=[];" vertex="1" connectable="0" parent="o04ofw2vbKh8fe8RlwHw-70">
          <mxGeometry x="-0.0718" y="3" relative="1" as="geometry">
            <mxPoint y="-3" as="offset" />
          </mxGeometry>
        </mxCell>
      </root>
    </mxGraphModel>
  </diagram>
</mxfile>
